<svg id="svg" version="1.1" xmlns="http://www.w3.org/2000/svg" xmlns:xlink="http://www.w3.org/1999/xlink" width="400" height="135.3125" viewBox="0, 0, 400,135.3125"><g id="svgg"><path id="path0" d="M133.250 36.825 C 129.437 37.134,122.938 39.339,120.258 41.235 C 119.987 41.427,119.481 41.733,119.134 41.917 C 116.740 43.180,111.278 48.539,110.131 50.750 C 109.941 51.117,109.619 51.642,109.415 51.917 C 108.876 52.646,107.851 54.545,107.504 55.458 C 107.339 55.894,106.931 56.962,106.599 57.833 C 102.877 67.579,104.702 80.921,110.845 88.865 C 113.879 92.788,119.037 97.235,121.735 98.252 C 122.018 98.359,122.850 98.726,123.583 99.069 C 125.540 99.983,125.810 100.093,127.000 100.464 C 134.806 102.893,144.441 102.388,151.167 99.196 C 152.037 98.783,152.985 98.357,153.272 98.249 C 156.594 97.002,163.023 91.006,165.548 86.801 C 170.691 78.234,171.820 66.782,168.401 57.833 C 168.069 56.962,167.661 55.894,167.496 55.458 C 167.149 54.545,166.124 52.646,165.585 51.917 C 165.381 51.642,165.059 51.117,164.869 50.750 C 163.728 48.551,158.185 43.115,155.861 41.917 C 155.505 41.733,155.098 41.487,154.957 41.368 C 154.518 41.002,151.960 39.652,151.083 39.326 C 144.590 36.905,140.085 36.273,133.250 36.825 M363.500 36.847 C 354.628 37.594,345.179 44.146,340.687 52.668 C 336.208 61.162,335.535 73.495,339.095 81.833 C 339.427 82.612,339.834 83.601,339.998 84.030 C 341.209 87.197,346.273 93.422,349.401 95.588 C 354.902 99.398,359.410 101.133,365.666 101.845 C 368.412 102.158,373.087 101.955,375.667 101.411 C 376.813 101.170,378.050 100.909,378.417 100.831 C 380.136 100.469,384.774 98.427,386.500 97.273 C 389.862 95.024,391.147 93.949,393.417 91.483 C 394.793 89.987,396.511 87.865,396.634 87.509 C 396.662 87.427,395.387 86.506,393.801 85.461 C 392.215 84.416,390.729 83.432,390.500 83.275 C 388.810 82.115,385.290 79.824,385.261 79.865 C 385.242 79.894,385.070 80.143,384.879 80.419 C 384.689 80.696,384.224 81.258,383.846 81.669 C 383.468 82.080,383.003 82.642,382.812 82.917 C 382.621 83.192,382.154 83.659,381.774 83.955 C 381.394 84.251,380.709 84.833,380.251 85.247 C 379.793 85.661,379.356 86.000,379.280 86.000 C 379.204 86.000,378.641 86.295,378.029 86.656 C 369.926 91.435,359.203 88.608,354.397 80.427 L 353.712 79.260 354.374 78.963 C 354.738 78.800,355.111 78.667,355.203 78.667 C 355.365 78.667,357.853 77.610,359.963 76.645 C 360.538 76.382,361.100 76.165,361.213 76.162 C 361.325 76.160,362.279 75.781,363.333 75.321 C 364.387 74.861,365.738 74.288,366.333 74.048 C 366.929 73.809,368.467 73.166,369.750 72.619 C 371.033 72.073,372.646 71.419,373.333 71.165 C 374.021 70.912,375.371 70.352,376.333 69.920 C 377.296 69.489,378.383 69.039,378.750 68.920 C 379.117 68.801,380.129 68.392,381.000 68.011 C 382.759 67.241,384.368 66.575,386.000 65.942 C 386.596 65.710,387.942 65.141,388.992 64.677 C 390.041 64.213,390.966 63.833,391.045 63.833 C 391.125 63.833,392.142 63.414,393.304 62.902 C 394.466 62.390,395.754 61.846,396.167 61.692 C 397.397 61.232,397.378 61.297,396.732 59.787 C 396.410 59.033,395.850 57.667,395.488 56.750 C 394.793 54.991,393.939 53.254,393.148 51.989 C 392.886 51.571,392.502 50.915,392.294 50.532 C 391.348 48.784,388.297 45.254,386.136 43.406 C 379.744 37.939,373.166 36.032,363.500 36.847 M371.250 49.747 C 372.471 50.031,373.526 50.422,374.995 51.137 C 378.205 52.698,381.198 56.500,379.217 56.500 C 379.005 56.500,376.808 57.413,374.443 58.484 C 373.816 58.768,373.221 59.000,373.123 59.000 C 373.024 59.000,371.662 59.556,370.097 60.236 C 368.531 60.915,367.063 61.526,366.833 61.593 C 366.604 61.659,365.241 62.228,363.805 62.857 C 362.369 63.486,361.130 64.000,361.053 64.000 C 360.975 64.000,359.863 64.457,358.581 65.016 C 357.299 65.575,355.734 66.219,355.104 66.448 C 354.474 66.677,353.404 67.120,352.728 67.432 C 352.052 67.744,351.461 68.000,351.416 68.000 C 351.001 68.000,351.494 64.143,352.236 61.582 C 354.485 53.822,363.812 48.016,371.250 49.747 M141.265 50.155 C 144.546 50.952,148.966 53.390,150.156 55.060 C 150.288 55.245,150.813 55.857,151.323 56.420 C 156.228 61.842,157.095 72.560,153.177 79.356 C 152.804 80.001,152.500 80.586,152.500 80.654 C 152.500 80.898,150.356 83.338,149.333 84.259 C 141.779 91.060,130.485 90.242,123.898 82.417 C 123.358 81.776,122.823 81.152,122.708 81.030 C 122.594 80.909,122.500 80.744,122.500 80.664 C 122.500 80.583,122.223 80.045,121.884 79.467 C 118.770 74.157,118.477 65.914,121.205 60.417 C 122.234 58.345,123.010 57.106,123.812 56.252 C 124.244 55.793,124.706 55.261,124.840 55.070 C 126.124 53.241,131.332 50.509,134.500 50.003 C 135.188 49.893,135.862 49.776,136.000 49.743 C 136.624 49.591,140.047 49.859,141.265 50.155 " stroke="none" fill="#ec4434" fill-rule="evenodd"></path><path id="path1" d="M316.833 52.250 L 316.833 100.167 323.917 100.167 L 331.000 100.167 331.000 52.250 L 331.000 4.333 323.917 4.333 L 316.833 4.333 316.833 52.250 " stroke="none" fill="#34ac54" fill-rule="evenodd"></path><path id="path2" d="M203.750 36.834 C 201.369 37.042,195.761 38.565,195.092 39.186 C 195.005 39.267,194.800 39.333,194.637 39.333 C 193.920 39.333,189.576 41.863,187.513 43.482 C 185.988 44.678,182.999 47.598,182.435 48.442 C 182.241 48.731,181.792 49.314,181.436 49.737 C 177.179 54.794,174.489 64.979,175.344 72.798 C 177.004 87.989,187.237 98.706,202.917 101.679 C 205.956 102.255,212.288 102.004,215.667 101.174 C 216.354 101.005,217.217 100.815,217.583 100.752 C 219.450 100.431,223.975 98.306,226.833 96.409 C 229.147 94.873,231.005 93.254,233.053 90.989 C 234.177 89.747,237.078 85.450,237.410 84.538 C 237.534 84.196,237.898 83.354,238.218 82.667 C 239.005 80.975,239.793 78.693,239.989 77.536 C 240.078 77.012,240.269 75.946,240.413 75.167 C 243.717 57.257,232.169 40.395,214.333 37.085 C 212.635 36.770,206.228 36.618,203.750 36.834 M211.917 50.163 C 214.516 50.834,216.608 51.776,218.333 53.052 C 219.533 53.940,222.490 56.777,222.497 57.047 C 222.499 57.119,222.830 57.681,223.234 58.297 C 226.682 63.555,227.251 71.192,224.683 77.724 C 220.906 87.328,208.450 91.788,199.667 86.682 C 199.071 86.336,198.471 86.010,198.333 85.959 C 197.996 85.832,195.123 83.351,194.927 83.016 C 194.841 82.870,194.369 82.263,193.878 81.667 C 190.110 77.096,188.790 68.680,190.886 62.583 C 191.588 60.541,193.272 57.413,194.140 56.539 C 194.298 56.380,194.713 55.891,195.063 55.452 C 198.463 51.187,206.325 48.720,211.917 50.163 " stroke="none" fill="#fcbc04" fill-rule="evenodd"></path><path id="path3" d="M47.417 0.688 C 44.528 0.963,40.932 1.665,36.803 2.760 C 36.281 2.898,35.006 3.353,33.969 3.771 C 32.932 4.189,31.708 4.679,31.250 4.859 C 28.286 6.026,22.092 9.725,20.018 11.567 C 19.544 11.988,19.100 12.333,19.032 12.333 C 18.965 12.333,18.536 12.685,18.080 13.115 C 17.623 13.545,16.931 14.168,16.541 14.500 C 15.256 15.595,11.497 19.782,10.417 21.324 C 8.383 24.226,7.860 25.010,7.305 25.997 C 6.164 28.024,5.262 29.748,4.991 30.417 C 4.843 30.783,4.551 31.454,4.342 31.908 C 0.266 40.749,-0.755 52.972,1.765 62.750 C 2.096 64.033,2.434 65.416,2.517 65.823 C 2.658 66.511,3.654 69.060,5.044 72.290 C 5.370 73.045,5.955 74.208,6.344 74.873 C 6.734 75.539,7.250 76.458,7.490 76.917 C 11.169 83.933,20.162 92.220,28.833 96.582 C 31.241 97.793,32.639 98.357,36.677 99.743 C 38.754 100.456,42.118 101.171,45.917 101.705 C 47.906 101.986,56.540 101.983,58.667 101.702 C 63.103 101.115,66.542 100.382,69.000 99.500 C 73.517 97.878,73.403 97.929,77.333 95.783 C 77.837 95.508,78.688 94.975,79.224 94.600 C 79.759 94.224,80.588 93.654,81.066 93.333 C 82.994 92.038,89.833 85.650,89.833 85.144 C 89.833 85.082,90.309 84.432,90.891 83.700 C 91.870 82.467,94.146 78.683,94.720 77.333 C 94.857 77.012,95.240 76.130,95.572 75.372 C 98.692 68.248,100.253 55.673,98.929 48.333 C 98.788 47.554,98.672 46.898,98.670 46.875 C 98.668 46.852,88.129 46.833,75.250 46.833 L 51.833 46.833 51.833 53.917 L 51.833 61.000 68.347 61.000 L 84.860 61.000 84.769 61.458 C 84.719 61.710,84.630 62.217,84.572 62.583 C 84.126 65.383,82.476 70.301,81.289 72.367 C 80.809 73.202,80.286 74.118,80.126 74.401 C 79.781 75.015,77.835 77.336,76.972 78.164 C 75.700 79.384,74.103 80.765,73.501 81.167 C 73.157 81.396,72.291 81.988,71.576 82.483 C 62.031 89.087,47.221 89.724,35.694 84.025 C 34.391 83.381,32.803 82.474,32.165 82.010 C 31.527 81.546,30.944 81.167,30.869 81.167 C 30.396 81.167,26.217 77.263,24.534 75.250 C 23.921 74.517,23.338 73.842,23.237 73.750 C 23.065 73.593,21.960 71.927,20.608 69.788 C 20.274 69.260,20.000 68.752,20.000 68.660 C 20.000 68.568,19.709 67.913,19.354 67.205 C 15.800 60.119,14.774 50.935,16.669 43.167 C 17.747 38.748,17.818 38.551,19.972 34.000 C 22.357 28.963,28.769 22.225,33.667 19.610 C 36.908 17.880,38.010 17.381,40.185 16.661 C 49.211 13.671,57.704 13.974,66.430 17.598 C 68.977 18.656,73.704 21.736,75.673 23.622 C 76.174 24.101,76.699 24.495,76.840 24.497 C 77.163 24.501,86.878 14.706,86.752 14.503 C 86.701 14.421,85.855 13.666,84.871 12.827 C 83.888 11.987,82.887 11.123,82.648 10.907 C 82.408 10.691,81.733 10.198,81.148 9.812 C 80.562 9.426,80.046 9.062,80.000 9.002 C 79.650 8.550,74.356 5.504,73.052 5.005 C 72.611 4.837,71.462 4.362,70.500 3.951 C 64.325 1.315,54.866 -0.022,47.417 0.688 M274.167 36.765 C 263.978 37.640,253.969 44.823,249.219 54.667 C 242.540 68.509,245.715 84.241,257.250 94.458 C 257.892 95.026,258.725 95.700,259.102 95.954 C 261.539 97.599,262.276 98.045,263.917 98.866 C 270.316 102.070,277.202 102.825,284.000 101.069 C 286.110 100.524,289.052 99.264,289.846 98.565 C 289.991 98.438,290.165 98.333,290.233 98.333 C 290.505 98.333,291.826 97.285,293.156 96.012 C 294.924 94.320,294.834 94.278,294.828 96.792 C 294.802 108.333,291.312 114.696,283.616 117.231 C 280.806 118.157,275.115 118.313,272.833 117.526 C 271.074 116.919,268.068 115.323,267.212 114.541 C 266.775 114.141,266.240 113.692,266.025 113.543 C 265.122 112.920,262.862 109.946,261.994 108.238 C 261.508 107.282,261.059 106.500,260.995 106.500 C 260.932 106.500,260.213 106.803,259.398 107.173 C 257.652 107.966,257.482 108.037,256.500 108.378 C 256.087 108.522,254.887 109.026,253.833 109.500 C 252.779 109.973,251.542 110.492,251.083 110.654 C 249.619 111.170,248.334 111.746,248.334 111.885 C 248.333 112.166,250.252 115.798,250.949 116.833 C 252.689 119.420,254.277 121.355,255.735 122.665 C 256.093 122.987,256.905 123.719,257.539 124.292 C 258.174 124.865,258.757 125.333,258.836 125.333 C 258.915 125.333,259.556 125.747,260.260 126.252 C 263.011 128.226,267.333 129.953,271.333 130.678 C 282.922 132.777,294.927 129.013,301.219 121.308 C 304.207 117.649,306.930 111.917,307.491 108.106 C 307.573 107.543,307.758 106.408,307.902 105.583 C 308.555 101.827,308.552 101.985,308.618 69.958 L 308.683 38.667 301.758 38.667 L 294.833 38.667 294.833 41.333 C 294.833 44.291,294.826 44.306,293.951 43.259 C 293.298 42.477,290.179 40.048,289.279 39.621 C 284.118 37.168,282.839 36.840,278.083 36.756 C 276.342 36.725,274.579 36.729,274.167 36.765 M280.853 49.911 C 284.371 50.527,288.981 52.999,290.368 55.012 C 290.522 55.235,290.979 55.780,291.384 56.223 C 295.310 60.520,296.778 69.985,294.555 76.667 C 291.069 87.146,279.099 92.102,270.241 86.734 C 269.696 86.403,269.100 86.074,268.917 86.003 C 267.092 85.289,263.417 80.780,262.152 77.705 C 259.940 72.325,259.862 66.603,261.932 61.620 C 262.169 61.050,262.423 60.386,262.497 60.146 C 262.700 59.487,264.839 56.386,265.874 55.250 C 269.495 51.280,275.813 49.029,280.853 49.911 " stroke="none" fill="#4484f4" fill-rule="evenodd"></path></g></svg>